<svg width="290" height="296" viewBox="0 0 290 296" fill="none" xmlns="http://www.w3.org/2000/svg">
<path d="M26.3 80H41V60.8L49.6 51.6L70.7 80H88.6L59.9 41.1L86.7 11.3H68.8L41 42.8V11.3H26.3V80ZM129.622 28.3V59.2L129.522 58.9C129.522 64.5 124.822 68.9 118.722 68.9C112.922 68.9 108.922 64.5 108.922 58.1V28.3H94.8219V61.2C94.8219 72.9 102.822 81.2 114.022 81.2C120.722 81.2 126.522 78.2 129.622 73.5V80H144.222V28.3H129.622ZM218.248 27.1C210.548 27.1 204.148 30.8 201.448 36.5C198.248 30.7 192.148 27.1 185.048 27.1C178.648 27.1 173.548 30.2 171.048 35.1V28.3H156.448V80H171.048V48.8C171.048 43.3 175.148 39.4 181.048 39.4C186.348 39.4 190.148 43.6 190.148 49.6V80.1H204.148V48.8C204.148 43.3 208.348 39.4 214.148 39.4C219.548 39.4 223.348 43.6 223.348 49.6V80.1H237.348V47.1C237.348 35.4 229.048 27.1 218.248 27.1Z" fill="black"/>
<path d="M117.8 209.2C134.6 209.2 144.5 200.5 144.5 187.4C144.5 174.7 134.7 170.3 119.9 167C109.3 164.6 105.2 163 105.2 158C105.2 153.9 109 150.6 115.3 150.6C121.9 150.6 128.8 153.3 134.9 158.2L142.6 147.6C135.6 141.6 126.9 138.1 115.7 138.1C100.7 138.1 90.3 146.8 90.3 159.5C90.3 172.8 100.6 176.9 115.1 180.2C125.6 182.6 129.6 184.1 129.6 189C129.6 193.3 125.8 196.7 118.4 196.7C109.7 196.7 102.3 193.3 95.8 187.7L87.3 197.8C95.3 205.2 105.9 209.2 117.8 209.2ZM177.781 155.1C170.581 155.1 163.481 157.1 156.181 160.8L161.081 170.5C165.181 168.4 169.681 166.8 174.481 166.8C182.981 166.8 186.381 171.6 186.381 177.1V178.1C181.981 176.4 177.381 175.5 173.181 175.5C161.181 175.5 151.681 182.5 151.681 192.7C151.681 202.6 160.181 209.2 171.181 209.2C176.781 209.2 182.681 207 186.381 202.8V208H200.481V177.1C200.481 163.6 191.281 155.1 177.781 155.1ZM174.481 199.1C169.481 199.1 165.781 196.5 165.781 192.3C165.781 188.1 169.981 185 175.281 185C179.281 185 183.081 185.7 186.381 186.9V191.7C185.381 196.5 180.081 199.1 174.481 199.1ZM244.687 155.1C237.487 155.1 231.487 158.2 227.387 163.5V156.3H212.787V225.2H227.387V200.7C231.487 206.1 237.487 209.2 244.687 209.2C258.487 209.2 268.487 198 268.487 182.1C268.487 166.3 258.487 155.1 244.687 155.1ZM240.487 196.9C233.387 196.9 228.187 191.7 227.387 184.1V180.1C228.187 172.6 233.387 167.4 240.487 167.4C248.587 167.4 254.287 173.5 254.287 182.1C254.287 190.8 248.587 196.9 240.487 196.9Z" fill="black"/>
<path d="M26.2 288H31.2V269.64L40.24 286.4L49.32 269.64V288H54.28V260.52H49.32L40.24 277.28L31.2 260.52H26.2V288ZM69.2113 266.84C66.6113 266.84 63.8913 267.56 60.9713 269L62.6513 272.4C64.4113 271.52 66.2913 270.84 68.2513 270.84C72.0113 270.84 73.3313 273.16 73.3313 275.56V276.12C71.4513 275.4 69.4113 275 67.5312 275C62.8913 275 59.0913 277.8 59.0913 281.88C59.0913 285.88 62.4113 288.48 66.8113 288.48C69.2113 288.48 71.8113 287.44 73.3313 285.52V288H78.0912V275.56C78.0912 270.32 74.6913 266.84 69.2113 266.84ZM67.8913 284.92C65.5713 284.92 63.8513 283.68 63.8513 281.72C63.8513 279.76 65.8113 278.4 68.2513 278.4C70.0913 278.4 71.8113 278.68 73.3313 279.2V281.52C72.7713 283.72 70.2513 284.92 67.8913 284.92ZM88.3753 271.32V267.32H83.4953V288H88.3753V277.56C88.3753 273.64 91.3353 271 95.7753 271V266.84C92.3753 266.84 89.6953 268.56 88.3753 271.32ZM118.911 267.32H113.151L104.191 277.12V260.04H99.3109V288H104.191V282.84L107.111 279.76L112.951 288H118.631L110.391 276.56L118.911 267.32ZM131.492 284.16C128.532 284.16 126.372 282.16 125.772 279.32H141.372C141.372 271.68 137.652 266.84 131.252 266.84C125.372 266.84 120.732 271.4 120.732 277.6C120.732 283.96 125.612 288.48 131.532 288.48C134.532 288.48 138.132 287.2 139.932 285.28L136.852 282.08C135.692 283.28 133.412 284.16 131.492 284.16ZM131.452 271.16C134.372 271.16 136.132 273 136.692 275.6H125.812C126.532 272.88 128.732 271.16 131.452 271.16ZM155.922 283.56C155.482 284 154.722 284.32 153.882 284.32C152.722 284.32 151.842 283.32 151.842 281.92V271.36H156.522V267.32H151.842V261.64H147.082V267.32H144.082V271.36H147.082V282.52C147.082 286 149.482 288.48 152.922 288.48C154.482 288.48 156.162 287.84 157.322 286.84L155.922 283.56ZM173.31 266.84C170.23 266.84 167.75 268.24 166.11 270.6V267.32H161.23V294.88H166.11V284.72C167.75 287.08 170.23 288.48 173.31 288.48C178.79 288.48 182.79 284 182.79 277.64C182.79 271.32 178.79 266.84 173.31 266.84ZM171.99 284.32C168.55 284.32 166.15 281.52 166.15 277.64C166.15 273.76 168.55 271 171.99 271C175.47 271 177.95 273.76 177.95 277.64C177.95 281.52 175.47 284.32 171.99 284.32ZM187.203 288H192.083V260.04H187.203V288ZM206.477 266.84C203.877 266.84 201.157 267.56 198.237 269L199.917 272.4C201.677 271.52 203.557 270.84 205.517 270.84C209.277 270.84 210.597 273.16 210.597 275.56V276.12C208.717 275.4 206.677 275 204.797 275C200.157 275 196.357 277.8 196.357 281.88C196.357 285.88 199.677 288.48 204.077 288.48C206.477 288.48 209.077 287.44 210.597 285.52V288H215.357V275.56C215.357 270.32 211.957 266.84 206.477 266.84ZM205.157 284.92C202.837 284.92 201.117 283.68 201.117 281.72C201.117 279.76 203.077 278.4 205.517 278.4C207.357 278.4 209.077 278.68 210.597 279.2V281.52C210.037 283.72 207.517 284.92 205.157 284.92ZM230.601 288.48C233.881 288.48 236.641 287.12 238.641 285L235.361 282.16C234.201 283.48 232.441 284.32 230.641 284.32C227.241 284.32 224.401 281.28 224.401 277.64C224.401 274.04 227.241 271 230.641 271C232.401 271 234.121 271.84 235.241 273.08L238.521 270.2C236.561 268.16 233.801 266.84 230.681 266.84C224.641 266.84 219.561 271.76 219.561 277.64C219.561 283.52 224.641 288.48 230.601 288.48ZM252.117 284.16C249.157 284.16 246.997 282.16 246.397 279.32H261.997C261.997 271.68 258.277 266.84 251.877 266.84C245.997 266.84 241.357 271.4 241.357 277.6C241.357 283.96 246.237 288.48 252.157 288.48C255.157 288.48 258.757 287.2 260.557 285.28L257.477 282.08C256.317 283.28 254.037 284.16 252.117 284.16ZM252.077 271.16C254.997 271.16 256.757 273 257.317 275.6H246.437C247.157 272.88 249.357 271.16 252.077 271.16Z" fill="black"/>
<path d="M188 129L186.78 133.332L188 129ZM8.50001 114.5L4.50843 112.422L4.50843 112.422L8.50001 114.5ZM80.6112 177.974C82.806 176.808 83.64 174.084 82.474 171.889L63.4732 136.123C62.3073 133.928 59.5828 133.094 57.388 134.26C55.1932 135.426 54.3592 138.15 55.5252 140.345L72.4148 172.137L40.6226 189.027C38.4278 190.193 37.5938 192.917 38.7598 195.112C39.9258 197.307 42.6502 198.141 44.845 196.975L80.6112 177.974ZM70.556 166.947C68.1729 166.242 65.6693 167.602 64.964 169.985C64.2588 172.368 65.619 174.872 68.0021 175.577L70.556 166.947ZM52.6742 170.787C55.0296 171.58 57.5818 170.313 58.3745 167.958C59.1673 165.602 57.9005 163.05 55.545 162.258L52.6742 170.787ZM37.9695 155.481C35.7031 154.461 33.0391 155.472 32.0194 157.738C30.9997 160.005 32.0104 162.669 34.2768 163.688L37.9695 155.481ZM19.6771 155.849C21.7572 157.21 24.546 156.626 25.9062 154.546C27.2663 152.466 26.6827 149.677 24.6027 148.317L19.6771 155.849ZM12.228 136.502C10.949 134.371 8.18467 133.68 6.05376 134.959C3.92286 136.238 3.23225 139.003 4.51126 141.134L12.228 136.502ZM0.909053 122.867C0.509825 125.32 2.17474 127.632 4.62775 128.031C7.08076 128.43 9.39295 126.765 9.79218 124.312L0.909053 122.867ZM16.7971 110.601C18.5318 108.821 18.4953 105.972 16.7155 104.238C14.9358 102.503 12.0868 102.54 10.3521 104.319L16.7971 110.601ZM23.8581 95.5563C21.5469 96.4702 20.4143 99.0846 21.3282 101.396C22.2422 103.707 24.8566 104.84 27.1677 103.926L23.8581 95.5563ZM42.8286 100.56C45.3053 100.354 47.1461 98.1794 46.9401 95.7026C46.7341 93.2259 44.5593 91.3852 42.0825 91.5912L42.8286 100.56ZM57.0093 91.4218C54.5271 91.2977 52.4143 93.2093 52.2903 95.6915C52.1662 98.1737 54.0778 100.286 56.56 100.411L57.0093 91.4218ZM73.434 102.165C75.8917 102.534 78.1832 100.841 78.5522 98.3833C78.9212 95.9256 77.228 93.634 74.7703 93.265L73.434 102.165ZM89.1083 95.8356C86.6739 95.3352 84.2948 96.903 83.7944 99.3373C83.294 101.772 84.8618 104.151 87.2962 104.651L89.1083 95.8356ZM104.051 108.52C106.46 109.13 108.908 107.672 109.518 105.263C110.129 102.853 108.671 100.406 106.261 99.7952L104.051 108.52ZM120.223 103.538C117.831 102.865 115.345 104.258 114.672 106.651C113.999 109.043 115.393 111.528 117.785 112.201L120.223 103.538ZM134.391 117.083C136.769 117.807 139.283 116.467 140.007 114.09C140.732 111.713 139.392 109.198 137.014 108.474L134.391 117.083ZM150.75 112.742C148.379 111.994 145.852 113.309 145.104 115.679C144.356 118.049 145.671 120.577 148.042 121.325L150.75 112.742ZM164.617 126.586C166.986 127.336 169.515 126.024 170.266 123.655C171.016 121.285 169.704 118.756 167.334 118.006L164.617 126.586ZM180.988 122.255C178.609 121.535 176.097 122.88 175.378 125.259C174.658 127.638 176.003 130.15 178.382 130.869L180.988 122.255ZM195.309 135.555C197.726 136.133 200.154 134.642 200.732 132.225C201.31 129.808 199.819 127.38 197.402 126.802L195.309 135.555ZM210.846 129.497C208.392 129.105 206.085 130.778 205.694 133.232C205.303 135.686 206.975 137.993 209.43 138.384L210.846 129.497ZM226.964 140.149C229.448 140.24 231.535 138.3 231.626 135.817C231.716 133.333 229.776 131.246 227.293 131.155L226.964 140.149ZM240.808 130.774C238.336 131.022 236.532 133.228 236.78 135.701C237.028 138.174 239.234 139.977 241.706 139.73L240.808 130.774ZM259.441 135.946C261.788 135.128 263.027 132.562 262.209 130.215C261.39 127.868 258.825 126.629 256.478 127.448L259.441 135.946ZM267.867 121.692C265.842 123.132 265.367 125.941 266.806 127.967C268.246 129.993 271.055 130.468 273.081 129.028L267.867 121.692ZM285.736 114.749C286.879 112.541 286.015 109.826 283.808 108.684C281.601 107.541 278.886 108.405 277.743 110.612L285.736 114.749ZM280.735 99.0345C280.67 101.519 282.631 103.586 285.115 103.651C287.599 103.716 289.666 101.755 289.732 99.2709L280.735 99.0345ZM285.222 80.5782C284.054 78.3847 281.329 77.5537 279.135 78.7221C276.942 79.8905 276.111 82.6159 277.279 84.8094L285.222 80.5782ZM269.51 75.155C271.385 76.7861 274.227 76.5883 275.858 74.7131C277.489 72.838 277.291 69.9956 275.416 68.3645L269.51 75.155ZM259.325 58.9879C256.993 58.1291 254.406 59.3236 253.547 61.6558C252.688 63.988 253.883 66.5748 256.215 67.4335L259.325 58.9879ZM243.552 64.4629C246.02 64.7554 248.258 62.9918 248.55 60.5238C248.843 58.0558 247.079 55.818 244.611 55.5255L243.552 64.4629ZM79.8172 169.697C77.1347 168.876 73.96 167.955 70.556 166.947L68.0021 175.577C71.4758 176.605 74.5533 177.498 77.1828 178.303L79.8172 169.697ZM55.545 162.258C49.6873 160.286 43.6666 158.044 37.9695 155.481L34.2768 163.688C40.3287 166.411 46.6444 168.758 52.6742 170.787L55.545 162.258ZM24.6027 148.317C19.0257 144.67 14.7631 140.726 12.228 136.502L4.51126 141.134C8.00977 146.962 13.4883 151.803 19.6771 155.849L24.6027 148.317ZM9.79218 124.312C10.1729 121.973 11.0219 119.401 12.4916 116.578L4.50843 112.422C2.66005 115.973 1.4643 119.455 0.909053 122.867L9.79218 124.312ZM12.4916 116.578C13.6777 114.299 15.1214 112.32 16.7971 110.601L10.3521 104.319C8.05847 106.673 6.09786 109.369 4.50843 112.422L12.4916 116.578ZM27.1677 103.926C31.6453 102.155 36.897 101.054 42.8286 100.56L42.0825 91.5912C35.5209 92.137 29.3602 93.3804 23.8581 95.5563L27.1677 103.926ZM56.56 100.411C61.9219 100.679 67.5735 101.285 73.434 102.165L74.7703 93.265C68.6778 92.3503 62.7248 91.7075 57.0093 91.4218L56.56 100.411ZM87.2962 104.651C92.8058 105.784 98.4117 107.091 104.051 108.52L106.261 99.7952C100.515 98.3394 94.774 97.0002 89.1083 95.8356L87.2962 104.651ZM117.785 112.201C123.367 113.772 128.923 115.417 134.391 117.083L137.014 108.474C131.501 106.794 125.881 105.13 120.223 103.538L117.785 112.201ZM148.042 121.325C153.776 123.134 159.297 124.901 164.617 126.586L167.334 118.006C162.062 116.336 156.476 114.549 150.75 112.742L148.042 121.325ZM178.382 130.869C181.302 131.753 184.109 132.579 186.78 133.332L189.22 124.668C186.618 123.936 183.869 123.127 180.988 122.255L178.382 130.869ZM186.78 133.332C189.688 134.15 192.531 134.89 195.309 135.555L197.402 126.802C194.744 126.166 192.016 125.456 189.22 124.668L186.78 133.332ZM209.43 138.384C215.645 139.375 221.487 139.949 226.964 140.149L227.293 131.155C222.209 130.97 216.731 130.434 210.846 129.497L209.43 138.384ZM241.706 139.73C248.284 139.07 254.194 137.776 259.441 135.946L256.478 127.448C251.968 129.02 246.758 130.178 240.808 130.774L241.706 139.73ZM273.081 129.028C278.722 125.019 282.948 120.136 285.736 114.749L277.743 110.612C275.652 114.652 272.411 118.463 267.867 121.692L273.081 129.028ZM289.732 99.2709C289.9 92.8566 288.346 86.442 285.222 80.5782L277.279 84.8094C279.703 89.3595 280.861 94.2413 280.735 99.0345L289.732 99.2709ZM275.416 68.3645C270.979 64.5047 265.586 61.2934 259.325 58.9879L256.215 67.4335C261.502 69.3803 265.936 72.0466 269.51 75.155L275.416 68.3645ZM244.611 55.5255C241.695 55.1798 238.656 55 235.5 55V64C238.315 64 240.999 64.1603 243.552 64.4629L244.611 55.5255Z" fill="black"/>
</svg>
